<?xml version="1.0" encoding="UTF-8" standalone="no"?>
<!-- Generator: Circuit Diagram, cdlibrary.dll 4.0.0.0 -->

<svg
   version="1.1"
   width="220"
   height="200"
   id="svg19"
   sodipodi:docname="HandsOn_4.svg"
   inkscape:version="1.3.2 (091e20e, 2023-11-25)"
   xmlns:inkscape="http://www.inkscape.org/namespaces/inkscape"
   xmlns:sodipodi="http://sodipodi.sourceforge.net/DTD/sodipodi-0.dtd"
   xmlns="http://www.w3.org/2000/svg"
   xmlns:svg="http://www.w3.org/2000/svg">
  <defs
     id="defs19" />
  <sodipodi:namedview
     id="namedview19"
     pagecolor="#ffffff"
     bordercolor="#000000"
     borderopacity="0.25"
     inkscape:showpageshadow="2"
     inkscape:pageopacity="0.0"
     inkscape:pagecheckerboard="0"
     inkscape:deskcolor="#d1d1d1"
     inkscape:zoom="4.5742803"
     inkscape:cx="154.45053"
     inkscape:cy="103.84147"
     inkscape:window-width="1920"
     inkscape:window-height="895"
     inkscape:window-x="0"
     inkscape:window-y="97"
     inkscape:window-maximized="0"
     inkscape:current-layer="svg19" />
  <line
     x1="60"
     y1="150"
     x2="90"
     y2="150"
     style="stroke:rgb(0, 0, 0);stroke-linecap:square;stroke-width:2"
     id="line1" />
  <line
     x1="130"
     y1="150"
     x2="160"
     y2="150"
     style="stroke:rgb(0, 0, 0);stroke-linecap:square;stroke-width:2"
     id="line2" />
  <path
     d="M 90,150 L 92,150 L 95,143 L 101,157 L 107,143 L 113,157 L 119,143 L 125,157 L 128,150 L 130,150"
     style="fill-opacity:0;fill:rgb(0, 0, 0);stroke:rgb(0, 0, 0);stroke-linecap:square;stroke-width:2"
     id="path2" />
  <text
     x="110"
     y="118"
     style="font-family:Arial;font-size:11px;text-anchor:middle"
     dominant-baseline="baseline"
     transform="rotate(0, 110, 118)"
     id="text2">4.7 kΩ</text>
  <ellipse
     cx="110"
     cy="150"
     rx="26"
     ry="26"
     style="fill-opacity:0;fill:rgb(0, 0, 0);stroke:rgb(0, 0, 0);stroke-width:2"
     id="ellipse2" />
  <path
     d="M 90,150 M 74,124 L 82,132 M 83,133 L 81,129 L 79,131 L 83,133 L 81,129"
     style="fill-opacity:0;fill:rgb(0, 0, 0);stroke:rgb(0, 0, 0);stroke-linecap:square;stroke-width:2"
     id="path3" />
  <path
     d="M 90,150 M 80,118 L 88,126 M 89,127 L 87,123 L 85,125 L 89,127 L 87,123"
     style="fill-opacity:0;fill:rgb(0, 0, 0);stroke:rgb(0, 0, 0);stroke-linecap:square;stroke-width:2"
     id="path4" />
  <line
     x1="60"
     y1="110"
     x2="60"
     y2="150"
     style="stroke:rgb(0, 0, 0);stroke-linecap:square;stroke-width:2"
     id="line4" />
  <line
     x1="160"
     y1="120"
     x2="160"
     y2="150"
     style="stroke:rgb(0, 0, 0);stroke-linecap:square;stroke-width:2"
     id="line5" />
  <line
     x1="160"
     y1="120"
     x2="160"
     y2="90"
     style="stroke:rgb(0, 0, 0);stroke-linecap:square;stroke-width:2"
     id="line6" />
  <g
     id="g19"
     transform="matrix(1,0,0,-1,0,198.76393)">
    <path
       d="m 160,98 m -8,0 h 16 m -8,0 8,15 h -16 l 8,-15"
       style="fill:#000000;fill-opacity:0;stroke:#000000;stroke-width:2;stroke-linecap:square"
       id="path6" />
    <path
       d="m 160,100 m 11,2 8,-8 m 1,-1 -2,4 -2,-2 4,-2 -2,4"
       style="fill:#000000;fill-opacity:0;stroke:#000000;stroke-width:2;stroke-linecap:square"
       id="path7" />
    <path
       d="m 160,100 m 4,-4 8,-8 m 1,-1 -2,4 -2,-2 4,-2 -2,4"
       style="fill:#000000;fill-opacity:0;stroke:#000000;stroke-width:2;stroke-linecap:square"
       id="path8" />
  </g>
  <line
     x1="160"
     y1="60"
     x2="160"
     y2="90"
     style="stroke:rgb(0, 0, 0);stroke-linecap:square;stroke-width:2"
     id="line8" />
  <line
     x1="130"
     y1="60"
     x2="160"
     y2="60"
     style="stroke:rgb(0, 0, 0);stroke-linecap:square;stroke-width:2"
     id="line9" />
  <line
     x1="60"
     y1="60"
     x2="80"
     y2="60"
     style="stroke:rgb(0, 0, 0);stroke-linecap:square;stroke-width:2"
     id="line10" />
  <line
     x1="80"
     y1="60"
     x2="85"
     y2="60"
     style="stroke:rgb(0, 0, 0);stroke-linecap:square;stroke-width:2"
     id="line11" />
  <line
     x1="125"
     y1="60"
     x2="130"
     y2="60"
     style="stroke:rgb(0, 0, 0);stroke-linecap:square;stroke-width:2"
     id="line12" />
  <path
     d="M 85,60 L 87,60 L 90,53 L 96,67 L 102,53 L 108,67 L 114,53 L 120,67 L 123,60 L 125,60"
     style="fill-opacity:0;fill:rgb(0, 0, 0);stroke:rgb(0, 0, 0);stroke-linecap:square;stroke-width:2"
     id="path12" />
  <text
     x="105"
     y="46"
     style="font-family:Arial;font-size:11px;text-anchor:middle"
     dominant-baseline="baseline"
     transform="rotate(0, 105, 46)"
     id="text12">220 Ω</text>
  <line
     x1="60"
     y1="60"
     x2="60"
     y2="90"
     style="stroke:rgb(0, 0, 0);stroke-linecap:square;stroke-width:2"
     id="line13" />
  <line
     x1="60"
     y1="100"
     x2="60"
     y2="96"
     style="stroke:rgb(0, 0, 0);stroke-linecap:square;stroke-width:2"
     id="line14" />
  <line
     x1="50"
     y1="96"
     x2="70"
     y2="96"
     style="stroke:rgb(0, 0, 0);stroke-linecap:square;stroke-width:2"
     id="line15" />
  <line
     x1="55"
     y1="102"
     x2="65"
     y2="102"
     style="stroke:rgb(0, 0, 0);stroke-linecap:square;stroke-width:2"
     id="line16" />
  <line
     x1="50"
     y1="108"
     x2="70"
     y2="108"
     style="stroke:rgb(0, 0, 0);stroke-linecap:square;stroke-width:2"
     id="line17" />
  <line
     x1="55"
     y1="114"
     x2="65"
     y2="114"
     style="stroke:rgb(0, 0, 0);stroke-linecap:square;stroke-width:2"
     id="line18" />
  <line
     x1="60"
     y1="114"
     x2="60"
     y2="110"
     style="stroke:rgb(0, 0, 0);stroke-linecap:square;stroke-width:2"
     id="line19" />
  <text
     x="46"
     y="105"
     style="font-family:Arial;font-size:12px;text-anchor:end"
     dominant-baseline="middle"
     transform="rotate(0, 46, 105)"
     id="text19">+5V</text>
</svg>
