<?xml version="1.0" encoding="UTF-8" standalone="no"?>
<!-- Generator: Circuit Diagram, cdlibrary.dll 4.0.0.0 -->

<svg
   version="1.1"
   width="220"
   height="180"
   id="svg21"
   sodipodi:docname="HandsOn_3.svg"
   inkscape:version="1.3.2 (091e20e, 2023-11-25)"
   xmlns:inkscape="http://www.inkscape.org/namespaces/inkscape"
   xmlns:sodipodi="http://sodipodi.sourceforge.net/DTD/sodipodi-0.dtd"
   xmlns="http://www.w3.org/2000/svg"
   xmlns:svg="http://www.w3.org/2000/svg">
  <defs
     id="defs21" />
  <sodipodi:namedview
     id="namedview21"
     pagecolor="#ffffff"
     bordercolor="#000000"
     borderopacity="0.25"
     inkscape:showpageshadow="2"
     inkscape:pageopacity="0.0"
     inkscape:pagecheckerboard="0"
     inkscape:deskcolor="#d1d1d1"
     inkscape:zoom="4.1561985"
     inkscape:cx="140.87392"
     inkscape:cy="94.557562"
     inkscape:window-width="1312"
     inkscape:window-height="449"
     inkscape:window-x="0"
     inkscape:window-y="97"
     inkscape:window-maximized="0"
     inkscape:current-layer="svg21" />
  <line
     x1="60"
     y1="150"
     x2="90"
     y2="150"
     style="stroke:rgb(0, 0, 0);stroke-linecap:square;stroke-width:2"
     id="line1" />
  <line
     x1="90"
     y1="150"
     x2="91"
     y2="150"
     style="stroke:rgb(0, 0, 0);stroke-linecap:square;stroke-width:2"
     id="line2" />
  <line
     x1="119"
     y1="150"
     x2="120"
     y2="150"
     style="stroke:rgb(0, 0, 0);stroke-linecap:square;stroke-width:2"
     id="line3" />
  <ellipse
     cx="94"
     cy="150"
     rx="3"
     ry="3"
     style="fill-opacity:0;fill:rgb(0, 0, 0);stroke:rgb(0, 0, 0);stroke-width:2"
     id="ellipse3" />
  <ellipse
     cx="116"
     cy="150"
     rx="3"
     ry="3"
     style="fill-opacity:0;fill:rgb(0, 0, 0);stroke:rgb(0, 0, 0);stroke-width:2"
     id="ellipse4" />
  <line
     x1="97"
     y1="148"
     x2="114"
     y2="142"
     style="stroke:rgb(0, 0, 0);stroke-linecap:square;stroke-width:2"
     id="line4" />
  <line
     x1="120"
     y1="150"
     x2="160"
     y2="150"
     style="stroke:rgb(0, 0, 0);stroke-linecap:square;stroke-width:2"
     id="line5" />
  <line
     x1="60"
     y1="110"
     x2="60"
     y2="150"
     style="stroke:rgb(0, 0, 0);stroke-linecap:square;stroke-width:2"
     id="line6" />
  <line
     x1="160"
     y1="120"
     x2="160"
     y2="150"
     style="stroke:rgb(0, 0, 0);stroke-linecap:square;stroke-width:2"
     id="line7" />
  <line
     x1="160"
     y1="120"
     x2="160"
     y2="90"
     style="stroke:rgb(0, 0, 0);stroke-linecap:square;stroke-width:2"
     id="line8" />
  <g
     id="g21"
     transform="matrix(1,0,0,-1,0,198.76393)">
    <path
       d="m 160,98 m -8,0 h 16 m -8,0 8,15 h -16 l 8,-15"
       style="fill:#000000;fill-opacity:0;stroke:#000000;stroke-width:2;stroke-linecap:square"
       id="path8" />
    <path
       d="m 160,100 m 11,2 8,-8 m 1,-1 -2,4 -2,-2 4,-2 -2,4"
       style="fill:#000000;fill-opacity:0;stroke:#000000;stroke-width:2;stroke-linecap:square"
       id="path9" />
    <path
       d="m 160,100 m 4,-4 8,-8 m 1,-1 -2,4 -2,-2 4,-2 -2,4"
       style="fill:#000000;fill-opacity:0;stroke:#000000;stroke-width:2;stroke-linecap:square"
       id="path10" />
  </g>
  <line
     x1="160"
     y1="60"
     x2="160"
     y2="90"
     style="stroke:rgb(0, 0, 0);stroke-linecap:square;stroke-width:2"
     id="line10" />
  <line
     x1="130"
     y1="60"
     x2="160"
     y2="60"
     style="stroke:rgb(0, 0, 0);stroke-linecap:square;stroke-width:2"
     id="line11" />
  <line
     x1="60"
     y1="60"
     x2="80"
     y2="60"
     style="stroke:rgb(0, 0, 0);stroke-linecap:square;stroke-width:2"
     id="line12" />
  <line
     x1="80"
     y1="60"
     x2="85"
     y2="60"
     style="stroke:rgb(0, 0, 0);stroke-linecap:square;stroke-width:2"
     id="line13" />
  <line
     x1="125"
     y1="60"
     x2="130"
     y2="60"
     style="stroke:rgb(0, 0, 0);stroke-linecap:square;stroke-width:2"
     id="line14" />
  <path
     d="M 85,60 L 87,60 L 90,53 L 96,67 L 102,53 L 108,67 L 114,53 L 120,67 L 123,60 L 125,60"
     style="fill-opacity:0;fill:rgb(0, 0, 0);stroke:rgb(0, 0, 0);stroke-linecap:square;stroke-width:2"
     id="path14" />
  <text
     x="105"
     y="46"
     style="font-family:Arial;font-size:11px;text-anchor:middle"
     dominant-baseline="baseline"
     transform="rotate(0, 105, 46)"
     id="text14">220 Ω</text>
  <line
     x1="60"
     y1="60"
     x2="60"
     y2="90"
     style="stroke:rgb(0, 0, 0);stroke-linecap:square;stroke-width:2"
     id="line15" />
  <line
     x1="60"
     y1="100"
     x2="60"
     y2="96"
     style="stroke:rgb(0, 0, 0);stroke-linecap:square;stroke-width:2"
     id="line16" />
  <line
     x1="50"
     y1="96"
     x2="70"
     y2="96"
     style="stroke:rgb(0, 0, 0);stroke-linecap:square;stroke-width:2"
     id="line17" />
  <line
     x1="55"
     y1="102"
     x2="65"
     y2="102"
     style="stroke:rgb(0, 0, 0);stroke-linecap:square;stroke-width:2"
     id="line18" />
  <line
     x1="50"
     y1="108"
     x2="70"
     y2="108"
     style="stroke:rgb(0, 0, 0);stroke-linecap:square;stroke-width:2"
     id="line19" />
  <line
     x1="55"
     y1="114"
     x2="65"
     y2="114"
     style="stroke:rgb(0, 0, 0);stroke-linecap:square;stroke-width:2"
     id="line20" />
  <line
     x1="60"
     y1="114"
     x2="60"
     y2="110"
     style="stroke:rgb(0, 0, 0);stroke-linecap:square;stroke-width:2"
     id="line21" />
  <text
     x="46"
     y="105"
     style="font-family:Arial;font-size:12px;text-anchor:end"
     dominant-baseline="middle"
     transform="rotate(0, 46, 105)"
     id="text21">+5V</text>
</svg>
