<?xml version="1.0" encoding="UTF-8" standalone="no"?>
<!-- Generator: Circuit Diagram, cdlibrary.dll 4.0.0.0 -->

<svg
   version="1.1"
   width="237.25363"
   height="206"
   id="svg38"
   xmlns="http://www.w3.org/2000/svg"
   xmlns:svg="http://www.w3.org/2000/svg">
  <defs
     id="defs38" />
  <line
     x1="35.017578"
     y1="163"
     x2="35.017578"
     y2="203"
     style="stroke:#000000;stroke-width:2;stroke-linecap:square"
     id="line2" />
  <line
     x1="185.01758"
     y1="203"
     x2="215.01758"
     y2="203"
     style="stroke:#000000;stroke-width:2;stroke-linecap:square"
     id="line3" />
  <line
     x1="215.01758"
     y1="153"
     x2="215.01758"
     y2="136"
     style="stroke:#000000;stroke-width:2;stroke-linecap:square"
     id="line4" />
  <line
     x1="215.01758"
     y1="110"
     x2="215.01758"
     y2="93"
     style="stroke:#000000;stroke-width:2;stroke-linecap:square"
     id="line5" />
  <line
     x1="175.01758"
     y1="123"
     x2="201.01758"
     y2="123"
     style="stroke:#000000;stroke-width:2;stroke-linecap:square"
     id="line6" />
  <line
     x1="200.51758"
     y1="131"
     x2="200.51758"
     y2="115"
     style="stroke:#000000;stroke-width:3;stroke-linecap:square"
     id="line7" />
  <line
     x1="200.51758"
     y1="119"
     x2="215.01758"
     y2="110"
     style="stroke:#000000;stroke-width:2;stroke-linecap:square"
     id="line9" />
  <circle
     cx="205.01758"
     cy="123"
     style="fill:#000000;fill-opacity:0;stroke:#000000;stroke-width:2"
     id="ellipse9"
     r="16" />
  <g
     id="g1"
     transform="rotate(180,220.05059,150.2082)">
    <line
       x1="239.69046"
       y1="173.15477"
       x2="225.19046"
       y2="164.15477"
       style="stroke:#000000;stroke-width:2;stroke-linecap:square"
       id="line8" />
    <path
       d="M 232.69047,169.61308 235,166 227.0714,165.4643 232,171 l 1,-2"
       style="fill:#000000;fill-opacity:1;stroke:#000000;stroke-width:2;stroke-linecap:square"
       id="path9" />
  </g>
  <line
     x1="215.01758"
     y1="53"
     x2="215.01758"
     y2="93"
     style="stroke:#000000;stroke-width:2;stroke-linecap:square"
     id="line10" />
  <path
     d="m 215.01758,80 m -8,0 h 16 m -8,0 8,-15 h -16 l 8,15"
     style="fill:#000000;fill-opacity:0;stroke:#000000;stroke-width:2;stroke-linecap:square"
     id="path10" />
  <path
     d="m 215.01758,78 m 11,-2 8,8 m 1,1 -2,-4 -2,2 4,2 -2,-4"
     style="fill:#000000;fill-opacity:0;stroke:#000000;stroke-width:2;stroke-linecap:square"
     id="path11" />
  <path
     d="m 215.01758,78 m 4,4 8,8 m 1,1 -2,-4 -2,2 4,2 -2,-4"
     style="fill:#000000;fill-opacity:0;stroke:#000000;stroke-width:2;stroke-linecap:square"
     id="path12" />
  <line
     x1="215.01758"
     y1="153"
     x2="215.01758"
     y2="203"
     style="stroke:#000000;stroke-width:2;stroke-linecap:square"
     id="line12" />
  <line
     x1="215.01758"
     y1="3"
     x2="215.01758"
     y2="8"
     style="stroke:#000000;stroke-width:2;stroke-linecap:square"
     id="line13" />
  <line
     x1="215.01758"
     y1="48"
     x2="215.01758"
     y2="53"
     style="stroke:#000000;stroke-width:2;stroke-linecap:square"
     id="line14" />
  <path
     d="m 215.01758,8 v 2 l -7,3 14,6 -14,6 14,6 -14,6 14,6 -7,3 v 2"
     style="fill:#000000;fill-opacity:0;stroke:#000000;stroke-width:2;stroke-linecap:square"
     id="path14" />
  <text
     x="201.01758"
     y="28"
     style="font-size:11px;font-family:Arial;text-anchor:end"
     dominant-baseline="middle"
     id="text14">4.7 kΩ</text>
  <line
     x1="135.01758"
     y1="3"
     x2="215.01758"
     y2="3"
     style="stroke:#000000;stroke-width:2;stroke-linecap:square"
     id="line15" />
  <line
     x1="135.01758"
     y1="123"
     x2="175.01758"
     y2="123"
     style="stroke:#000000;stroke-width:2;stroke-linecap:square"
     id="line16" />
  <line
     x1="135.01758"
     y1="203"
     x2="185.01758"
     y2="203"
     style="stroke:#000000;stroke-width:2;stroke-linecap:square"
     id="line17" />
  <line
     x1="135.01758"
     y1="73"
     x2="135.01758"
     y2="83"
     style="stroke:#000000;stroke-width:2;stroke-linecap:square"
     id="line18" />
  <line
     x1="135.01758"
     y1="3"
     x2="135.01758"
     y2="23"
     style="stroke:#000000;stroke-width:2;stroke-linecap:square"
     id="line19" />
  <line
     x1="135.01758"
     y1="23"
     x2="135.01758"
     y2="28"
     style="stroke:#000000;stroke-width:2;stroke-linecap:square"
     id="line20" />
  <line
     x1="135.01758"
     y1="68"
     x2="135.01758"
     y2="73"
     style="stroke:#000000;stroke-width:2;stroke-linecap:square"
     id="line21" />
  <path
     d="m 135.01758,28 v 2 l -7,3 14,6 -14,6 14,6 -14,6 14,6 -7,3 v 2"
     style="fill:#000000;fill-opacity:0;stroke:#000000;stroke-width:2;stroke-linecap:square"
     id="path21" />
  <text
     x="121.01758"
     y="48"
     style="font-size:11px;font-family:Arial;text-anchor:end"
     dominant-baseline="middle"
     id="text21">100 kΩ</text>
  <line
     x1="135.01758"
     y1="123"
     x2="135.01758"
     y2="143"
     style="stroke:#000000;stroke-width:2;stroke-linecap:square"
     id="line22" />
  <line
     x1="135.01758"
     y1="183"
     x2="135.01758"
     y2="203"
     style="stroke:#000000;stroke-width:2;stroke-linecap:square"
     id="line23" />
  <path
     d="m 135.01758,143 v 2 l -7,3 14,6 -14,6 14,6 -14,6 14,6 -7,3 v 2"
     style="fill:#000000;fill-opacity:0;stroke:#000000;stroke-width:2;stroke-linecap:square"
     id="path23" />
  <text
     x="103.01758"
     y="163"
     style="font-size:11px;font-family:Arial;text-anchor:end"
     dominant-baseline="middle"
     id="text23">4.7 kΩ</text>
  <circle
     cx="135.01758"
     cy="163"
     style="fill:#000000;fill-opacity:0;stroke:#000000;stroke-width:2"
     id="ellipse23"
     r="26" />
  <path
     d="m 135.01758,143 m -26,-16 8,8 m 1,1 -4,-2 2,-2 2,4 -4,-2"
     style="fill:#000000;fill-opacity:0;stroke:#000000;stroke-width:2;stroke-linecap:square"
     id="path24" />
  <path
     d="m 135.01758,143 m -32,-10 8,8 m 1,1 -4,-2 2,-2 2,4 -4,-2"
     style="fill:#000000;fill-opacity:0;stroke:#000000;stroke-width:2;stroke-linecap:square"
     id="path25" />
  <line
     x1="135.01758"
     y1="83"
     x2="135.01758"
     y2="93"
     style="stroke:#000000;stroke-width:2;stroke-linecap:square"
     id="line25" />
  <line
     x1="135.01758"
     y1="83"
     x2="135.01758"
     y2="123"
     style="stroke:#000000;stroke-width:2;stroke-linecap:square"
     id="line26" />
  <line
     x1="35.017578"
     y1="203"
     x2="135.01758"
     y2="203"
     style="stroke:#000000;stroke-width:2;stroke-linecap:square"
     id="line27" />
  <line
     x1="35.017578"
     y1="123"
     x2="35.017578"
     y2="173"
     style="stroke:#000000;stroke-width:2;stroke-linecap:square"
     id="line28" />
  <line
     x1="35.017578"
     y1="3"
     x2="135.01758"
     y2="3"
     style="stroke:#000000;stroke-width:2;stroke-linecap:square"
     id="line29" />
  <line
     x1="35.017578"
     y1="3"
     x2="35.017578"
     y2="73"
     style="stroke:#000000;stroke-width:2;stroke-linecap:square"
     id="line30" />
  <line
     x1="35.017578"
     y1="143"
     x2="35.017578"
     y2="117"
     style="stroke:#000000;stroke-width:2;stroke-linecap:square"
     id="line31" />
  <line
     x1="25.017578"
     y1="117"
     x2="45.017578"
     y2="117"
     style="stroke:#000000;stroke-width:2;stroke-linecap:square"
     id="line32" />
  <line
     x1="30.017578"
     y1="111"
     x2="40.017578"
     y2="111"
     style="stroke:#000000;stroke-width:2;stroke-linecap:square"
     id="line33" />
  <line
     x1="25.017578"
     y1="105"
     x2="45.017578"
     y2="105"
     style="stroke:#000000;stroke-width:2;stroke-linecap:square"
     id="line34" />
  <line
     x1="30.017578"
     y1="99"
     x2="40.017578"
     y2="99"
     style="stroke:#000000;stroke-width:2;stroke-linecap:square"
     id="line35" />
  <line
     x1="35.017578"
     y1="99"
     x2="35.017578"
     y2="73"
     style="stroke:#000000;stroke-width:2;stroke-linecap:square"
     id="line36" />
  <text
     x="21.017578"
     y="108"
     style="font-size:12px;font-family:Arial;text-anchor:end"
     dominant-baseline="middle"
     id="text36">+5V</text>
  <circle
     cx="135.01758"
     cy="3"
     style="fill:#000000;fill-opacity:1;stroke:#000000;stroke-width:2"
     id="ellipse36"
     r="2" />
  <circle
     cx="135.01758"
     cy="123"
     style="fill:#000000;fill-opacity:1;stroke:#000000;stroke-width:2"
     id="ellipse37"
     r="2" />
  <circle
     cx="135.01758"
     cy="203"
     style="fill:#000000;fill-opacity:1;stroke:#000000;stroke-width:2"
     id="ellipse38"
     r="2" />
</svg>
